<?xml version="1.0" encoding="utf-8" ?>
<svg xmlns="http://www.w3.org/2000/svg" width="512" height="512" viewBox="225 435 140 140">
  <path fill="#6E1EA5" d="M277.161 486.181C280.622 487.079 284.456 489.922 285.985 493.311C286.57 494.606 285.424 495.647 284.7 496.684C281.424 496.833 276.732 492.684 276.017 489.493C275.746 488.285 276.586 487.138 277.161 486.181Z"/>
  <path fill="#6E1EA5" d="M281.937 509.825C284.008 510.057 284.585 510.335 285.525 512.041C285.308 514.922 281.668 517.651 279.498 519.649C277.46 519.65 276.707 519.438 275.871 517.672C276.134 514.822 279.837 511.83 281.937 509.825Z"/>
  <path fill="#6E1EA5" d="M302.065 509.706C305.314 510.845 308.815 513.649 309.892 517.013C309.498 519.19 309.696 518.457 308.024 520.32C305.097 518.854 301.882 515.759 300.413 512.714C300.578 510.948 300.676 511.366 302.065 509.706Z"/>
  <path fill="#6E1EA5" d="M290.833 514.482C297.773 513.889 296.285 521.25 294.68 525.646C288.233 525.124 290.147 519.312 290.833 514.482Z"/>
  <path fill="#64348E" d="M240.55 449.568C246.539 449.496 267.566 448.34 271.245 451.216C271.681 452.845 271.834 452.901 271.293 454.535C267.449 459.245 252.623 455.035 246.404 456.931L246.108 457.929C245.911 464.183 247.646 478.505 244.13 482.193C242.521 482.684 243.29 482.717 241.744 482.127C238.162 478.433 238.388 452.939 240.55 449.568Z"/>
  <path fill="#64348E" d="M316.712 449.558C322.16 449.66 342.407 448.663 345.753 450.812C347.408 455.759 346.657 473.23 346.329 479.224C346.234 480.962 345.112 481.482 343.921 482.372C340.903 481.678 339.827 481.46 339.563 477.84C339.069 471.08 340.102 464.422 339.561 457.608L339.484 456.704C333.421 456.513 319.676 457.65 315.07 455.174C313.905 453.577 314.145 454.426 314.122 452.608C315.067 450.717 315.001 450.812 316.712 449.558Z"/>
  <path fill="#64348E" d="M342.028 523.31C343.993 523.633 345.066 523.846 346.384 525.34C347.291 530.28 347.205 550.777 345.539 555.393C343.253 556.834 322.647 556.064 318.875 556.039C316.413 556.135 316.139 556.123 314.769 553.889C314.573 551.753 314.364 552.718 315.355 550.875C318.832 548.318 334.617 549.422 340.01 549.509C339.436 543.191 339.85 536.172 339.843 529.793C339.84 526.774 339.832 525.509 342.028 523.31Z"/>
  <path fill="#64348E" d="M241.728 523.867C242.994 524.085 245.085 524.189 245.575 525.352C247.502 529.934 246.531 544.462 246.483 549.521C251.793 549.493 257.109 549.426 262.417 549.415C265.808 549.408 271.209 549.056 271.939 553.137C271.413 554.937 271.241 554.921 269.94 556.213C264.466 556.105 243.847 556.882 240.289 555.329C238.636 550.832 239.721 543.839 239.721 538.881C239.721 534.234 238.111 527.147 241.728 523.867Z"/>
  <path fill="#64348E" d="M290.785 534.943C292.223 534.861 296.022 534.705 296.125 536.697C296.456 543.113 297.744 562.028 295.17 566.948C292.584 567.136 289.651 567.223 289.65 563.833C289.649 558.294 288.067 538.782 290.785 534.943Z"/>
  <path fill="#64348E" d="M327.376 499.576C332.301 499.403 337.581 499.366 342.51 499.408C346.952 499.446 355.446 498.144 357.103 503.091C356.848 505.011 356.634 505.025 355.419 506.494C347.423 506.554 339.084 506.741 331.082 506.528C328.167 506.451 325.802 505.762 325.343 502.648C325.902 500.789 326.004 500.854 327.376 499.576Z"/>
  <path fill="#64348E" d="M291.949 439.912C293.767 440.218 294.133 440.192 295.755 441.172C297.216 444.376 296.426 460.154 296.507 464.671C296.569 468.112 296.548 469.96 294.072 472.282C292.167 471.854 292.216 471.901 290.565 470.892C288.225 467.951 289.812 450.256 289.575 445.638C289.427 442.762 290.037 441.762 291.949 439.912Z"/>
  <path fill="#64348E" d="M230.541 499.554C236.689 499.298 253.159 498.637 259.203 500.525C260.384 500.894 260.568 502.193 260.846 503.228C260.338 504.986 260.256 504.918 258.974 506.127C251.238 506.059 243.41 506.564 235.673 506.354C232.771 506.276 230.095 506.034 228.952 503.194C229.121 501.269 229.406 501.076 230.541 499.554Z"/>
  <path fill="#64348E" d="M291.643 496.598C295.197 495.929 298.629 498.239 299.347 501.783C300.065 505.328 297.803 508.792 294.268 509.558C291.938 510.064 289.517 509.276 287.931 507.496C286.344 505.717 285.839 503.221 286.607 500.964C287.376 498.708 289.3 497.039 291.643 496.598Z"/>
  <path fill="#64348E" d="M272.818 500.086C276.154 500.029 280.299 499.149 281.906 502.456C281.837 505.194 281.776 505.093 279.377 505.713C275.032 506.078 274.493 506.462 270.584 504.627C269.437 503.154 269.619 503.933 269.766 502.282C271.041 500.783 270.985 500.87 272.818 500.086Z"/>
  <path fill="#64348E" d="M291.766 479.826C293.334 479.988 293.25 479.959 294.668 480.641C296.839 483.637 295.663 488.516 295.238 492.312C293.644 492.347 292.78 492.54 291.424 491.723C289.369 488.529 289.577 482.807 291.766 479.826Z"/>
  <path fill="#64348E" d="M304.743 500.615C308.3 500.351 313.008 499.351 315.649 501.92C315.938 504.067 315.936 503.272 315.091 505.438C311.99 506.186 306.616 507.087 304.341 504.419C303.885 502.857 304.269 502.181 304.743 500.615Z"/>
  <path fill="#64348E" d="M305.904 486.809C307.773 486.914 307.835 486.806 309.524 487.749C311.17 491.027 306.673 493.77 304.322 495.657L303.006 496.047C300.836 495.293 300.565 495.184 300.55 493.061C301.663 490.722 304.016 488.705 305.904 486.809Z"/>
</svg>
