<?xml version="1.0" encoding="utf-8" ?><svg xmlns="http://www.w3.org/2000/svg" xmlns:xlink="http://www.w3.org/1999/xlink" width="1024" height="1024" viewBox="0 0 1024 1024"><path fill="#6E1EA5" d="M670.059 458.673C691.681 459.447 705.204 465.001 709.786 488.014C706.97 487.981 693.417 488.417 691.974 487.696C689.224 486.321 688.306 478.217 680.007 476.268C674.976 474.832 667.969 475.465 663.483 478.205C647.385 488.038 650.1 524.653 670.536 527.977C675.654 528.81 681.94 527.733 686.129 524.827C690.907 521.511 691.771 517.684 692.784 512.499L674.539 512.551C674.835 508.21 674.77 503.201 674.892 498.76L675.549 498.153C686.39 498.237 699.913 498.265 710.647 497.67C711.383 509.479 711.343 520.456 704.282 530.664C692.293 547.997 665.004 548.804 648.861 537.065C630.294 523.565 628.818 490.252 642.295 472.673C649.469 463.314 658.776 460.018 670.059 458.673ZM708.952 499.574C698.136 499.789 687.318 499.918 676.499 499.959C676.487 501.876 676.303 509.577 676.617 510.985C682.736 510.417 688.329 511.242 694.6 510.723C693.382 524.064 685.365 531.612 671.577 529.75C653.241 527.273 650.389 509.193 652.005 494.295C654.453 471.736 683.351 465.237 692.496 486.185C697.546 486.097 702.598 486.055 707.649 486.058C701.87 465.744 686.854 458.4 666.564 460.797C654.306 462.559 644.189 469.973 639.382 481.477C631.99 499.165 633.96 523.64 650.327 535.756C665.417 546.911 691.471 545.903 702.82 529.701C709.149 520.674 709.177 510.105 708.952 499.574Z"/><path fill="#6E1EA5" d="M745.622 479.673C752.292 478.639 761.285 480.255 767.057 483.759C784.544 494.379 785.323 526.823 768.979 538.85C764.26 542.324 760.564 543.357 755.048 544.431C735.992 545.789 721.679 538.753 718.716 518.601C715.757 498.477 724.859 482.732 745.622 479.673ZM755.476 542.463C763.104 540.851 769.368 537.909 773.812 531.136C782.519 517.867 780.65 495.126 766.744 485.962C760.065 481.56 752.191 480.912 744.506 481.632C707.935 487.232 711.776 548.891 755.476 542.463Z"/><path fill="#6E1EA5" d="M749.027 492.631C765.64 493.178 766.71 515.383 759.86 526.329C757.554 530.015 753.818 530.892 749.761 531.372C742.153 530.583 737.133 526.269 735.714 518.735C733.532 507.145 735.719 494.864 749.027 492.631ZM742.741 527.734C746.046 529.004 746.982 529.229 750.528 529.339C762.071 526.873 763.001 515.131 761.17 505.32C759.952 498.791 755.186 494.482 748.376 494.584C733.725 498.32 734.019 518.641 742.741 527.734Z"/><path fill="#64348E" d="M551.814 480.664C581.572 477.991 593.137 508.296 579.749 531.652C575.677 538.758 567.899 541.779 560.172 543.429C552.098 543.747 545.232 543.42 538.191 538.651C523.825 528.957 522.474 505.072 532.046 491.661C536.995 484.728 543.734 481.91 551.814 480.664ZM557.701 531.256C570.021 526.558 571.389 513.339 567.345 502.025C565.165 495.922 559.777 493.144 553.432 493.132C536.723 498.506 537.123 532.085 557.701 531.256Z"/><path fill="#64348E" d="M400.556 520.005C401.805 524.16 403.611 526.371 407.542 528.349C413.304 531.247 420.354 531.231 426.392 529.463C436.555 526.488 436.83 514.911 426.796 511.104C414.341 506.379 395.497 507.148 389.149 492.912C383.889 480.057 391.157 466.172 404.045 462.043C413.498 459.015 425.943 459.111 434.82 463.338C441.147 466.412 445.889 472.005 447.886 478.75C448.485 480.708 448.847 482.602 449.157 484.617L433.387 484.528C432.042 479.937 430.996 477.721 426.707 475.176C420.247 471.342 407.706 472.397 403.97 479.649C403.058 481.392 402.899 483.434 403.531 485.298C406.991 495.447 428.017 495.246 437.373 499.975C449.787 506.25 453.702 516.212 447.838 529.32C440.519 545.681 412.917 546.579 398.844 539.887C392.375 536.811 388.143 530.518 385.986 523.903C385.583 522.098 385.393 519.963 385.164 518.1C388.659 518.129 397.387 517.659 400.261 518.548L400.556 520.005Z"/><path fill="#6E1EA5" d="M385.164 518.1C388.659 518.129 397.387 517.659 400.261 518.548L400.556 520.005C395.681 520.139 390.935 518.977 386.965 521.027C386.26 522.437 386.377 522.36 385.986 523.903C385.583 522.098 385.393 519.963 385.164 518.1Z"/><path fill="#64348E" d="M468.423 460.246C471.115 460.247 473.807 460.231 476.498 460.2C476.518 469.971 476.197 482.273 476.789 491.848C481.481 484.456 485.86 481.147 494.815 480.971C504.865 480.549 513.412 486.726 515.286 496.809C516.391 502.758 515.985 509.58 515.955 515.72L515.795 542.063L500.521 542.085C501.078 532.943 500.615 521.218 500.533 511.875C500.591 503.305 501.436 499.938 494.358 494.4C474.001 489.967 476.724 510.087 476.761 523.044C476.779 529.381 476.673 535.727 476.882 542.063C471.855 542.077 466.502 541.973 461.522 542.431C461.136 515.299 461.419 487.602 461.439 460.443C463.695 460.325 466.146 460.308 468.423 460.246Z"/><path fill="#64348E" d="M598.998 466.483L614.496 466.472L614.486 482.056C618.3 481.989 622.112 481.852 625.921 481.645C625.778 485.598 625.679 489.551 625.623 493.505L614 493.449C614.17 502.419 613.666 511.522 613.974 520.487C614.3 529.994 617.268 531.042 625.499 530.041L625.52 539.125C625.499 540.923 625.816 541.323 624.981 542.547C609.476 545.574 598.186 540.042 599.001 523.071C599.449 513.757 599.04 502.946 599.031 493.478L590.503 493.495L590.461 481.869L599.014 481.793L598.998 466.483Z"/><path fill="#64348E" d="M240.55 449.568C246.539 449.496 267.566 448.34 271.245 451.216C271.681 452.845 271.834 452.901 271.293 454.535C267.449 459.245 252.623 455.035 246.404 456.931L246.108 457.929C245.911 464.183 247.646 478.505 244.13 482.193C242.521 482.684 243.29 482.717 241.744 482.127C238.162 478.433 238.388 452.939 240.55 449.568Z"/><path fill="#64348E" d="M316.712 449.558C322.16 449.66 342.407 448.663 345.753 450.812C347.408 455.759 346.657 473.23 346.329 479.224C346.234 480.962 345.112 481.482 343.921 482.372C340.903 481.678 339.827 481.46 339.563 477.84C339.069 471.08 340.102 464.422 339.561 457.608L339.484 456.704C333.421 456.513 319.676 457.65 315.07 455.174C313.905 453.577 314.145 454.426 314.122 452.608C315.067 450.717 315.001 450.812 316.712 449.558Z"/><path fill="#64348E" d="M342.028 523.31C343.993 523.633 345.066 523.846 346.384 525.34C347.291 530.28 347.205 550.777 345.539 555.393C343.253 556.834 322.647 556.064 318.875 556.039C316.413 556.135 316.139 556.123 314.769 553.889C314.573 551.753 314.364 552.718 315.355 550.875C318.832 548.318 334.617 549.422 340.01 549.509C339.436 543.191 339.85 536.172 339.843 529.793C339.84 526.774 339.832 525.509 342.028 523.31Z"/><path fill="#64348E" d="M241.728 523.867C242.994 524.085 245.085 524.189 245.575 525.352C247.502 529.934 246.531 544.462 246.483 549.521C251.793 549.493 257.109 549.426 262.417 549.415C265.808 549.408 271.209 549.056 271.939 553.137C271.413 554.937 271.241 554.921 269.94 556.213C264.466 556.105 243.847 556.882 240.289 555.329C238.636 550.832 239.721 543.839 239.721 538.881C239.721 534.234 238.111 527.147 241.728 523.867Z"/><path fill="#64348E" d="M290.785 534.943C292.223 534.861 296.022 534.705 296.125 536.697C296.456 543.113 297.744 562.028 295.17 566.948C292.584 567.136 289.651 567.223 289.65 563.833C289.649 558.294 288.067 538.782 290.785 534.943Z"/><path fill="#64348E" d="M327.376 499.576C332.301 499.403 337.581 499.366 342.51 499.408C346.952 499.446 355.446 498.144 357.103 503.091C356.848 505.011 356.634 505.025 355.419 506.494C347.423 506.554 339.084 506.741 331.082 506.528C328.167 506.451 325.802 505.762 325.343 502.648C325.902 500.789 326.004 500.854 327.376 499.576Z"/><path fill="#64348E" d="M291.949 439.912C293.767 440.218 294.133 440.192 295.755 441.172C297.216 444.376 296.426 460.154 296.507 464.671C296.569 468.112 296.548 469.96 294.072 472.282C292.167 471.854 292.216 471.901 290.565 470.892C288.225 467.951 289.812 450.256 289.575 445.638C289.427 442.762 290.037 441.762 291.949 439.912Z"/><path fill="#64348E" d="M230.541 499.554C236.689 499.298 253.159 498.637 259.203 500.525C260.384 500.894 260.568 502.193 260.846 503.228C260.338 504.986 260.256 504.918 258.974 506.127C251.238 506.059 243.41 506.564 235.673 506.354C232.771 506.276 230.095 506.034 228.952 503.194C229.121 501.269 229.406 501.076 230.541 499.554Z"/><path fill="#64348E" d="M291.643 496.598C295.197 495.929 298.629 498.239 299.347 501.783C300.065 505.328 297.803 508.792 294.268 509.558C291.938 510.064 289.517 509.276 287.931 507.496C286.344 505.717 285.839 503.221 286.607 500.964C287.376 498.708 289.3 497.039 291.643 496.598Z"/><path fill="#64348E" d="M272.818 500.086C276.154 500.029 280.299 499.149 281.906 502.456C281.837 505.194 281.776 505.093 279.377 505.713C275.032 506.078 274.493 506.462 270.584 504.627C269.437 503.154 269.619 503.933 269.766 502.282C271.041 500.783 270.985 500.87 272.818 500.086Z"/><path fill="#6E1EA5" d="M277.161 486.181C280.622 487.079 284.456 489.922 285.985 493.311C286.57 494.606 285.424 495.647 284.7 496.684C281.424 496.833 276.732 492.684 276.017 489.493C275.746 488.285 276.586 487.138 277.161 486.181Z"/><path fill="#64348E" d="M291.766 479.826C293.334 479.988 293.25 479.959 294.668 480.641C296.839 483.637 295.663 488.516 295.238 492.312C293.644 492.347 292.78 492.54 291.424 491.723C289.369 488.529 289.577 482.807 291.766 479.826Z"/><path fill="#64348E" d="M304.743 500.615C308.3 500.351 313.008 499.351 315.649 501.92C315.938 504.067 315.936 503.272 315.091 505.438C311.99 506.186 306.616 507.087 304.341 504.419C303.885 502.857 304.269 502.181 304.743 500.615Z"/><path fill="#6E1EA5" d="M281.937 509.825C284.008 510.057 284.585 510.335 285.525 512.041C285.308 514.922 281.668 517.651 279.498 519.649C277.46 519.65 276.707 519.438 275.871 517.672C276.134 514.822 279.837 511.83 281.937 509.825Z"/><path fill="#64348E" d="M305.904 486.809C307.773 486.914 307.835 486.806 309.524 487.749C311.17 491.027 306.673 493.77 304.322 495.657L303.006 496.047C300.836 495.293 300.565 495.184 300.55 493.061C301.663 490.722 304.016 488.705 305.904 486.809Z"/><path fill="#6E1EA5" d="M302.065 509.706C305.314 510.845 308.815 513.649 309.892 517.013C309.498 519.19 309.696 518.457 308.024 520.32C305.097 518.854 301.882 515.759 300.413 512.714C300.578 510.948 300.676 511.366 302.065 509.706Z"/><path fill="#6E1EA5" d="M290.833 514.482C297.773 513.889 296.285 521.25 294.68 525.646C288.233 525.124 290.147 519.312 290.833 514.482Z"/></svg>